# xmcd
#
# Track frame offsets:
# 150
# 21805
# 39095
# 58560
# 77885
# 94085
# 112675
# 132625
# 154420
# 173915
# 194785
# 212430
# 227910
# 249320
#
# Disc length: 3547 seconds
#
#
# Revision: 2
# Processed by: cddbd v1.5.1PL2 Copyright (c) Steve Scherf et al.
# Submitted via: FreeRIP 2.942 
#
DISCID=b70dd90e
DTITLE=Chitãozinho and Xororó - Nossa História Na Cidade
DYEAR=1997
DGENRE=Country
TTITLE0=Um homem quando ama
TTITLE1=Só quem amou demais
TTITLE2=Confidências
TTITLE3=Nossa história
TTITLE4=Página de amigos
TTITLE5=Razão pra chorar
TTITLE6=Página virada
TTITLE7=Somos assim
TTITLE8=É assim que te amo
TTITLE9=Tó deixando você
TTITLE10=São coisas da vida
TTITLE11=Até que te conheci
TTITLE12=Tudo por amor
TTITLE13=Feito eu
EXTD=
EXTT0=
EXTT1=
EXTT2=
EXTT3=
EXTT4=
EXTT5=
EXTT6=
EXTT7=
EXTT8=
EXTT9=
EXTT10=
EXTT11=
EXTT12=
EXTT13=
PLAYORDER=
